<svg width="88" height="48" viewBox="0 0 88 48" fill="none" xmlns="http://www.w3.org/2000/svg">
<path d="M9.816 29H4.76L0.296 10.248H5.624L6.472 16.712L7.736 22.984L9.352 16.712L9.768 15L8.536 10.248H13.768L14.92 16.712L16.328 22.984L17.208 16.712L18.152 10.248H23.016L18.888 29H13.432L11.464 21.464L9.816 29ZM32.5533 29L31.8333 26.008H27.2893L26.6813 29H21.9772L26.8572 11.544L26.4732 10.248H33.0812L38.4253 29H32.5533ZM29.3533 15.752L27.9453 22.744H31.0492L29.3533 15.752ZM44.3204 22.76V29H39.0084V10.248H41.1204C41.6324 10.248 42.395 10.2267 43.4084 10.184C44.4217 10.1307 45.259 10.104 45.9204 10.104C48.2244 10.104 49.9417 10.6107 51.0724 11.624C52.2137 12.6373 52.7844 14.1893 52.7844 16.28C52.7844 17.5173 52.5124 18.616 51.9684 19.576C51.435 20.536 50.7257 21.2987 49.8404 21.864C50.3204 21.9813 50.731 22.2533 51.0724 22.68C51.4244 23.1067 51.6964 23.6133 51.8884 24.2C52.0804 24.776 52.2457 25.3627 52.3844 25.96C52.5337 26.5467 52.699 27.128 52.8804 27.704C53.0724 28.28 53.2804 28.712 53.5044 29H47.6004C47.483 28.8507 47.3924 28.4347 47.3284 27.752C47.2644 27.0587 47.1737 26.232 47.0564 25.272C46.9497 24.3013 46.795 23.4907 46.5924 22.84C46.571 22.84 46.5444 22.84 46.5124 22.84C46.3097 22.84 46.091 22.84 45.8564 22.84C45.6324 22.8293 45.435 22.8187 45.2644 22.808C45.0937 22.7973 44.9124 22.7867 44.7204 22.776C44.539 22.7653 44.4057 22.76 44.3204 22.76ZM44.3204 19.784H44.8324C45.099 19.784 45.323 19.7733 45.5044 19.752C45.6857 19.7307 45.883 19.6933 46.0964 19.64C46.3204 19.576 46.5017 19.48 46.6404 19.352C46.7897 19.224 46.9284 19.0587 47.0564 18.856C47.1844 18.6533 47.2804 18.392 47.3444 18.072C47.4084 17.752 47.4404 17.3787 47.4404 16.952V15.688C47.4404 14.76 47.195 14.1147 46.7044 13.752C46.2244 13.3787 45.531 13.192 44.6244 13.192H44.3204V19.784ZM61.2131 29.32C58.9411 29.32 57.0905 28.7653 55.6611 27.656L55.6451 27.56L56.5571 25.24C56.7705 25.3787 56.9785 25.5013 57.1811 25.608C57.3838 25.7147 57.5705 25.8 57.7411 25.864C57.9225 25.9173 58.0825 25.9653 58.2211 26.008C58.3598 26.0507 58.5038 26.0773 58.6531 26.088C58.8131 26.0987 58.9305 26.1093 59.0051 26.12C59.0905 26.12 59.1971 26.12 59.3251 26.12C59.4531 26.1093 59.5331 26.104 59.5651 26.104C60.1518 26.104 60.7278 25.9653 61.2931 25.688C61.8691 25.4 62.3438 25.0107 62.7171 24.52C63.0905 24.0293 63.2771 23.512 63.2771 22.968V22.296C62.8718 22.6053 62.3651 22.8507 61.7571 23.032C61.1598 23.2027 60.5838 23.288 60.0291 23.288C58.4398 23.288 57.1065 22.68 56.0291 21.464C54.9625 20.2373 54.4291 18.7227 54.4291 16.92C54.4291 15.5227 54.7651 14.2907 55.4371 13.224C56.1091 12.1573 57.0158 11.352 58.1571 10.808C59.2985 10.2533 60.5838 9.976 62.0131 9.976C64.2425 9.976 66.0451 10.7493 67.4211 12.296C68.7971 13.8427 69.4851 15.8533 69.4851 18.328C69.4851 20.44 69.1438 22.328 68.4611 23.992C67.7891 25.656 66.8185 26.9627 65.5491 27.912C64.2905 28.8507 62.8451 29.32 61.2131 29.32ZM61.9651 13.192C61.5811 13.192 61.2345 13.3307 60.9251 13.608C60.6158 13.8747 60.4611 14.184 60.4611 14.536V18.76C60.4611 19.1227 60.6158 19.4373 60.9251 19.704C61.2345 19.9707 61.5758 20.104 61.9491 20.104C62.2905 20.104 62.6158 19.992 62.9251 19.768C63.2345 19.544 63.4105 19.2773 63.4531 18.968V14.536C63.4531 14.1733 63.2985 13.8587 62.9891 13.592C62.6798 13.3253 62.3385 13.192 61.9651 13.192ZM81.3033 29L80.5833 26.008H76.0393L75.4313 29H70.7272L75.6072 11.544L75.2232 10.248H81.8312L87.1753 29H81.3033ZM78.1033 15.752L76.6953 22.744H79.7992L78.1033 15.752Z" fill="white"/>
<path d="M3.08 42.105C2.82333 42.105 2.58333 42.0817 2.36 42.035C2.14 41.9917 1.955 41.9333 1.805 41.86C1.655 41.7867 1.53167 41.7167 1.435 41.65C1.34167 41.5833 1.26333 41.5167 1.2 41.45L1.325 40.235C1.46167 40.4183 1.645 40.5783 1.875 40.715C2.105 40.8483 2.35333 40.915 2.62 40.915C2.88667 40.915 3.07833 40.8867 3.195 40.83C3.315 40.7733 3.375 40.67 3.375 40.52C3.375 40.36 3.30667 40.2233 3.17 40.11C3.03667 39.9967 2.805 39.86 2.475 39.7C2.355 39.64 2.25333 39.5867 2.17 39.54C2.08667 39.49 1.975 39.41 1.835 39.3C1.69833 39.1867 1.58667 39.07 1.5 38.95C1.41333 38.8267 1.33667 38.67 1.27 38.48C1.20333 38.2867 1.17 38.08 1.17 37.86C1.17 36.67 1.84167 36.075 3.185 36.075C3.39833 36.075 3.59833 36.0983 3.785 36.145C3.975 36.1883 4.12333 36.2367 4.23 36.29C4.33667 36.3433 4.43333 36.4067 4.52 36.48C4.61 36.55 4.66667 36.6 4.69 36.63C4.71333 36.6567 4.73 36.6783 4.74 36.695L4.49 37.66C4.36 37.5067 4.19667 37.3933 4 37.32C3.80667 37.2433 3.62167 37.205 3.445 37.205C3.01833 37.205 2.805 37.3383 2.805 37.605C2.805 37.675 2.81833 37.7383 2.845 37.795C2.87167 37.8517 2.915 37.9033 2.975 37.95C3.035 37.9967 3.09 38.0367 3.14 38.07C3.19333 38.1033 3.265 38.145 3.355 38.195C3.44833 38.2417 3.51833 38.28 3.565 38.31C4.05167 38.5167 4.40833 38.7617 4.635 39.045C4.865 39.3283 4.98 39.6733 4.98 40.08C4.98 40.74 4.81667 41.2433 4.49 41.59C4.16667 41.9333 3.69667 42.105 3.08 42.105ZM5.5648 42V38.765L5.2648 38.58V38.045L6.3398 37.75H7.1748V42H5.5648ZM6.2898 37.29L5.4698 36.465V36.29L6.2898 35.47H6.4798L7.3348 36.29V36.465L6.4798 37.29H6.2898ZM9.17961 42.105C8.86628 42.105 8.54961 42.0533 8.22961 41.95C7.90961 41.8433 7.70461 41.74 7.61461 41.64L7.74461 40.835C7.85794 40.945 8.04628 41.04 8.30961 41.12C8.57628 41.2 8.84794 41.24 9.12461 41.24C9.32461 41.24 9.46128 41.215 9.53461 41.165C9.61128 41.115 9.64961 41.045 9.64961 40.955C9.64961 40.8683 9.58294 40.7917 9.44961 40.725C9.31628 40.655 9.09961 40.575 8.79961 40.485C8.02294 40.2517 7.63461 39.7683 7.63461 39.035C7.63461 38.735 7.72128 38.4783 7.89461 38.265C8.06794 38.0483 8.28961 37.8917 8.55961 37.795C8.82961 37.6983 9.13128 37.65 9.46461 37.65C10.0346 37.65 10.4546 37.755 10.7246 37.965C10.7846 38.0217 10.8146 38.05 10.8146 38.05L10.5946 38.765C10.3746 38.5483 10.0713 38.44 9.68461 38.44C9.36794 38.44 9.20961 38.5333 9.20961 38.72C9.20961 38.7733 9.22128 38.8183 9.24461 38.855C9.26794 38.8883 9.30628 38.9183 9.35961 38.945C9.41628 38.9683 9.47128 38.9883 9.52461 39.005C9.57794 39.0183 9.65294 39.0383 9.74961 39.065C9.84628 39.0883 9.92961 39.11 9.99961 39.13C10.3896 39.26 10.6729 39.4433 10.8496 39.68C11.0263 39.9167 11.1146 40.2117 11.1146 40.565C11.1146 41.5917 10.4696 42.105 9.17961 42.105ZM12.7114 42.105C12.2614 42.105 11.9464 41.97 11.7664 41.7C11.5897 41.43 11.5014 40.9733 11.5014 40.33V38.63H11.1564V37.935L11.7464 37.75L12.2564 36.585H13.1364V37.75H13.9564V38.63H13.1214V40.49C13.1214 40.7567 13.1597 40.9333 13.2364 41.02C13.313 41.1067 13.4314 41.15 13.5914 41.15C13.6614 41.15 13.7247 41.1417 13.7814 41.125C13.838 41.1083 13.8847 41.085 13.9214 41.055V41.735C13.8714 41.785 13.8064 41.835 13.7264 41.885C13.6464 41.9317 13.513 41.98 13.3264 42.03C13.143 42.08 12.938 42.105 12.7114 42.105ZM16.6428 39.415C16.6428 38.9917 16.6211 38.6917 16.5778 38.515C16.5345 38.3383 16.4545 38.25 16.3378 38.25C16.2378 38.25 16.1561 38.2683 16.0928 38.305C16.0295 38.3383 15.9828 38.3933 15.9528 38.47C15.9228 38.5433 15.9028 38.62 15.8928 38.7C15.8861 38.7767 15.8828 38.875 15.8828 38.995V39.415H16.6428ZM16.2428 42.105C15.8695 42.105 15.5445 42.0483 15.2678 41.935C14.9945 41.8217 14.7778 41.6633 14.6178 41.46C14.4611 41.2567 14.3461 41.0283 14.2728 40.775C14.1995 40.5183 14.1628 40.2333 14.1628 39.92C14.1628 39.1733 14.3528 38.6083 14.7328 38.225C15.1128 37.8417 15.6445 37.65 16.3278 37.65C16.9845 37.65 17.4545 37.805 17.7378 38.115C18.0211 38.4217 18.1628 38.9167 18.1628 39.6V40.155H15.8778V40.25C15.8778 40.4467 15.8978 40.6083 15.9378 40.735C15.9811 40.8617 16.0428 40.955 16.1228 41.015C16.2028 41.075 16.2845 41.115 16.3678 41.135C16.4511 41.155 16.5528 41.165 16.6728 41.165C16.7895 41.165 16.9145 41.15 17.0478 41.12C17.1845 41.09 17.3211 41.0433 17.4578 40.98C17.5978 40.9167 17.7145 40.8417 17.8078 40.755L18.1028 41.26C17.9795 41.46 17.7978 41.6283 17.5578 41.765C17.3211 41.8983 17.0928 41.9883 16.8728 42.035C16.6528 42.0817 16.4428 42.105 16.2428 42.105ZM20.3195 42H18.7045V38.765L18.4045 38.58V38.045L19.4795 37.75H20.3295V38.395C20.3461 38.3717 20.3695 38.3417 20.3995 38.305C20.4328 38.265 20.4928 38.2033 20.5795 38.12C20.6661 38.0367 20.7545 37.9633 20.8445 37.9C20.9378 37.8367 21.0495 37.78 21.1795 37.73C21.3128 37.6767 21.4445 37.65 21.5745 37.65C21.9078 37.65 22.1628 37.7133 22.3395 37.84C22.5161 37.9667 22.6411 38.1733 22.7145 38.46C22.8278 38.2633 23.0011 38.08 23.2345 37.91C23.4711 37.7367 23.7311 37.65 24.0145 37.65C24.3278 37.65 24.5711 37.705 24.7445 37.815C24.9211 37.9217 25.0495 38.105 25.1295 38.365C25.2095 38.625 25.2495 38.9917 25.2495 39.465V42H23.6245V39.32C23.6245 39.1733 23.5895 39.0583 23.5195 38.975C23.4495 38.8917 23.3428 38.85 23.1995 38.85C23.1028 38.85 22.9711 38.93 22.8045 39.09C22.8145 39.25 22.8195 39.4233 22.8195 39.61V42H21.1695V39.32C21.1795 39.0067 21.0461 38.85 20.7695 38.85C20.7495 38.85 20.7295 38.8517 20.7095 38.855C20.6928 38.8583 20.6761 38.8617 20.6595 38.865C20.6461 38.8683 20.6295 38.875 20.6095 38.885C20.5928 38.8917 20.5778 38.8983 20.5645 38.905C20.5511 38.9083 20.5361 38.9167 20.5195 38.93C20.5028 38.94 20.4895 38.9483 20.4795 38.955C20.4695 38.9617 20.4545 38.9733 20.4345 38.99C20.4178 39.0033 20.4045 39.0133 20.3945 39.02C20.3878 39.0267 20.3745 39.0383 20.3545 39.055C20.3378 39.0683 20.3261 39.0783 20.3195 39.085V42ZM27.849 42V36.14H29.554V42H27.849ZM31.9064 42H30.2914V38.765L29.9914 38.58V38.045L31.0664 37.75H31.9164V38.395L31.9764 38.32C32.0164 38.2667 32.0747 38.2033 32.1514 38.13C32.2314 38.0567 32.3197 37.985 32.4164 37.915C32.513 37.8417 32.628 37.78 32.7614 37.73C32.898 37.6767 33.0314 37.65 33.1614 37.65C33.618 37.65 33.9397 37.775 34.1264 38.025C34.3164 38.275 34.4114 38.6933 34.4114 39.28C34.4114 39.3 34.4114 39.33 34.4114 39.37C34.408 39.41 34.4064 39.4417 34.4064 39.465V42H32.7564V39.32C32.7664 39.0067 32.633 38.85 32.3564 38.85C32.3364 38.85 32.3164 38.8517 32.2964 38.855C32.2797 38.8583 32.263 38.8617 32.2464 38.865C32.233 38.8683 32.2164 38.875 32.1964 38.885C32.1797 38.8917 32.1647 38.8983 32.1514 38.905C32.138 38.9083 32.123 38.9167 32.1064 38.93C32.0897 38.94 32.0764 38.9483 32.0664 38.955C32.0564 38.9617 32.0414 38.9733 32.0214 38.99C32.0047 39.0033 31.9914 39.0133 31.9814 39.02C31.9747 39.0267 31.9614 39.0383 31.9414 39.055C31.9247 39.0683 31.913 39.0783 31.9064 39.085V42ZM36.7775 42H35.1525V38.63H34.6675V37.965L35.1725 37.75V37.315C35.1725 36.9783 35.2191 36.6867 35.3125 36.44C35.4058 36.1933 35.5358 36.0017 35.7025 35.865C35.8725 35.7283 36.0591 35.63 36.2625 35.57C36.4691 35.5067 36.6991 35.475 36.9525 35.475C37.1791 35.475 37.3925 35.505 37.5925 35.565C37.7925 35.625 37.9175 35.68 37.9675 35.73L37.7775 36.49C37.6175 36.41 37.4525 36.37 37.2825 36.37C37.2391 36.37 37.1991 36.3733 37.1625 36.38C36.9058 36.42 36.7775 36.6383 36.7775 37.035V37.75H37.4225V38.63H36.7775V42ZM39.86 41.505C40.0066 41.505 40.1183 41.445 40.195 41.325C40.275 41.2017 40.315 41.0333 40.315 40.82V39.24C40.315 38.59 40.1616 38.265 39.855 38.265C39.7116 38.265 39.6 38.3233 39.52 38.44C39.44 38.5567 39.4 38.7217 39.4 38.935V40.56C39.4 41.19 39.5533 41.505 39.86 41.505ZM39.82 42.105C39.0566 42.105 38.4983 41.9317 38.145 41.585C37.7916 41.2383 37.615 40.685 37.615 39.925C37.615 39.1717 37.7933 38.605 38.15 38.225C38.5066 37.8417 39.0866 37.65 39.89 37.65C40.6733 37.65 41.2383 37.8333 41.585 38.2C41.935 38.5633 42.11 39.115 42.11 39.855C42.11 40.6217 41.925 41.1883 41.555 41.555C41.1883 41.9217 40.61 42.105 39.82 42.105ZM44.2696 42H42.6546V38.765L42.3546 38.58V38.015L43.4296 37.75H43.8346L43.9796 38.94C44.1163 38.1233 44.5546 37.715 45.2946 37.715C45.378 37.715 45.4646 37.73 45.5546 37.76L45.3846 39.54C45.3146 39.4767 45.1613 39.445 44.9246 39.445C44.5846 39.445 44.3663 39.535 44.2696 39.715V42ZM47.5655 42H45.9505V38.765L45.6505 38.58V38.045L46.7255 37.75H47.5755V38.395C47.5922 38.3717 47.6155 38.3417 47.6455 38.305C47.6789 38.265 47.7389 38.2033 47.8255 38.12C47.9122 38.0367 48.0005 37.9633 48.0905 37.9C48.1839 37.8367 48.2955 37.78 48.4255 37.73C48.5589 37.6767 48.6905 37.65 48.8205 37.65C49.1539 37.65 49.4089 37.7133 49.5855 37.84C49.7622 37.9667 49.8872 38.1733 49.9605 38.46C50.0739 38.2633 50.2472 38.08 50.4805 37.91C50.7172 37.7367 50.9772 37.65 51.2605 37.65C51.5739 37.65 51.8172 37.705 51.9905 37.815C52.1672 37.9217 52.2955 38.105 52.3755 38.365C52.4555 38.625 52.4955 38.9917 52.4955 39.465V42H50.8705V39.32C50.8705 39.1733 50.8355 39.0583 50.7655 38.975C50.6955 38.8917 50.5889 38.85 50.4455 38.85C50.3489 38.85 50.2172 38.93 50.0505 39.09C50.0605 39.25 50.0655 39.4233 50.0655 39.61V42H48.4155V39.32C48.4255 39.0067 48.2922 38.85 48.0155 38.85C47.9955 38.85 47.9755 38.8517 47.9555 38.855C47.9389 38.8583 47.9222 38.8617 47.9055 38.865C47.8922 38.8683 47.8755 38.875 47.8555 38.885C47.8389 38.8917 47.8239 38.8983 47.8105 38.905C47.7972 38.9083 47.7822 38.9167 47.7655 38.93C47.7489 38.94 47.7355 38.9483 47.7255 38.955C47.7155 38.9617 47.7005 38.9733 47.6805 38.99C47.6639 39.0033 47.6505 39.0133 47.6405 39.02C47.6339 39.0267 47.6205 39.0383 47.6005 39.055C47.5839 39.0683 47.5722 39.0783 47.5655 39.085V42ZM55.2883 41.555L55.2383 41.61C55.2049 41.65 55.1533 41.6967 55.0833 41.75C55.0166 41.8033 54.9383 41.8567 54.8483 41.91C54.7616 41.9633 54.6549 42.0083 54.5283 42.045C54.4016 42.085 54.2716 42.105 54.1383 42.105C53.2383 42.105 52.7883 41.66 52.7883 40.77C52.7883 40.5967 52.8199 40.4383 52.8833 40.295C52.9466 40.1483 53.0283 40.025 53.1283 39.925C53.2283 39.825 53.3483 39.7367 53.4883 39.66C53.6283 39.58 53.7683 39.5183 53.9083 39.475C54.0516 39.4283 54.2016 39.39 54.3583 39.36C54.5149 39.33 54.6549 39.31 54.7783 39.3C54.9016 39.29 55.0199 39.285 55.1333 39.285V39.195C55.1333 38.9917 55.0783 38.8483 54.9683 38.765C54.8616 38.6817 54.6883 38.64 54.4483 38.64C54.2416 38.64 54.0266 38.665 53.8033 38.715C53.5799 38.7617 53.4049 38.8183 53.2783 38.885L52.9583 38.205C53.1849 38.0583 53.4799 37.93 53.8433 37.82C54.2066 37.7067 54.5766 37.65 54.9533 37.65C55.2866 37.65 55.5616 37.6833 55.7783 37.75C55.9949 37.8133 56.1699 37.9233 56.3033 38.08C56.4399 38.2333 56.5366 38.43 56.5933 38.67C56.6499 38.9067 56.6783 39.2083 56.6783 39.575V41.61L56.8183 42H55.4483L55.2883 41.555ZM54.8933 41.225C54.9366 41.225 54.9766 41.2167 55.0133 41.2C55.0533 41.18 55.0833 41.1617 55.1033 41.145C55.1233 41.125 55.1333 41.115 55.1333 41.115V39.915C54.9299 39.915 54.7683 39.9717 54.6483 40.085C54.5283 40.195 54.4683 40.3667 54.4683 40.6C54.4683 41.0167 54.6099 41.225 54.8933 41.225ZM58.6327 42.105C58.3194 42.105 58.0027 42.0533 57.6827 41.95C57.3627 41.8433 57.1577 41.74 57.0677 41.64L57.1977 40.835C57.3111 40.945 57.4994 41.04 57.7627 41.12C58.0294 41.2 58.3011 41.24 58.5777 41.24C58.7777 41.24 58.9144 41.215 58.9877 41.165C59.0644 41.115 59.1027 41.045 59.1027 40.955C59.1027 40.8683 59.0361 40.7917 58.9027 40.725C58.7694 40.655 58.5527 40.575 58.2527 40.485C57.4761 40.2517 57.0877 39.7683 57.0877 39.035C57.0877 38.735 57.1744 38.4783 57.3477 38.265C57.5211 38.0483 57.7427 37.8917 58.0127 37.795C58.2827 37.6983 58.5844 37.65 58.9177 37.65C59.4877 37.65 59.9077 37.755 60.1777 37.965C60.2377 38.0217 60.2677 38.05 60.2677 38.05L60.0477 38.765C59.8277 38.5483 59.5244 38.44 59.1377 38.44C58.8211 38.44 58.6627 38.5333 58.6627 38.72C58.6627 38.7733 58.6744 38.8183 58.6977 38.855C58.7211 38.8883 58.7594 38.9183 58.8127 38.945C58.8694 38.9683 58.9244 38.9883 58.9777 39.005C59.0311 39.0183 59.1061 39.0383 59.2027 39.065C59.2994 39.0883 59.3827 39.11 59.4527 39.13C59.8427 39.26 60.1261 39.4433 60.3027 39.68C60.4794 39.9167 60.5677 40.2117 60.5677 40.565C60.5677 41.5917 59.9227 42.105 58.6327 42.105ZM60.9945 42V38.765L60.6945 38.58V38.045L61.7695 37.75H62.6045V42H60.9945ZM61.7195 37.29L60.8995 36.465V36.29L61.7195 35.47H61.9095L62.7645 36.29V36.465L61.9095 37.29H61.7195ZM67.6661 42H66.0861L64.6911 36.14H66.3561L66.6211 38.16L67.0161 40.12L67.5211 38.16L67.6511 37.625L67.2661 36.14H68.9011L69.2611 38.16L69.7011 40.12L69.9761 38.16L70.2711 36.14H71.7911L70.5011 42H68.7961L68.1811 39.645L67.6661 42ZM74.1115 41.555L74.0615 41.61C74.0282 41.65 73.9765 41.6967 73.9065 41.75C73.8399 41.8033 73.7615 41.8567 73.6715 41.91C73.5849 41.9633 73.4782 42.0083 73.3515 42.045C73.2249 42.085 73.0949 42.105 72.9615 42.105C72.0615 42.105 71.6115 41.66 71.6115 40.77C71.6115 40.5967 71.6432 40.4383 71.7065 40.295C71.7699 40.1483 71.8515 40.025 71.9515 39.925C72.0515 39.825 72.1715 39.7367 72.3115 39.66C72.4515 39.58 72.5915 39.5183 72.7315 39.475C72.8749 39.4283 73.0249 39.39 73.1815 39.36C73.3382 39.33 73.4782 39.31 73.6015 39.3C73.7249 39.29 73.8432 39.285 73.9565 39.285V39.195C73.9565 38.9917 73.9015 38.8483 73.7915 38.765C73.6849 38.6817 73.5115 38.64 73.2715 38.64C73.0649 38.64 72.8499 38.665 72.6265 38.715C72.4032 38.7617 72.2282 38.8183 72.1015 38.885L71.7815 38.205C72.0082 38.0583 72.3032 37.93 72.6665 37.82C73.0299 37.7067 73.3999 37.65 73.7765 37.65C74.1099 37.65 74.3849 37.6833 74.6015 37.75C74.8182 37.8133 74.9932 37.9233 75.1265 38.08C75.2632 38.2333 75.3599 38.43 75.4165 38.67C75.4732 38.9067 75.5015 39.2083 75.5015 39.575V41.61L75.6415 42H74.2715L74.1115 41.555ZM73.7165 41.225C73.7599 41.225 73.7999 41.2167 73.8365 41.2C73.8765 41.18 73.9065 41.1617 73.9265 41.145C73.9465 41.125 73.9565 41.115 73.9565 41.115V39.915C73.7532 39.915 73.5915 39.9717 73.4715 40.085C73.3515 40.195 73.2915 40.3667 73.2915 40.6C73.2915 41.0167 73.4332 41.225 73.7165 41.225ZM77.756 42H76.141V38.765L75.841 38.58V38.015L76.916 37.75H77.321L77.466 38.94C77.6026 38.1233 78.041 37.715 78.781 37.715C78.8643 37.715 78.951 37.73 79.041 37.76L78.871 39.54C78.801 39.4767 78.6476 39.445 78.411 39.445C78.071 39.445 77.8526 39.535 77.756 39.715V42ZM81.3619 43.765C81.1019 43.765 80.8085 43.705 80.4819 43.585C80.1552 43.4683 79.9435 43.3567 79.8469 43.25L80.1619 42.565C80.2452 42.6283 80.3802 42.6867 80.5669 42.74C80.7535 42.7933 80.9135 42.82 81.0469 42.82C81.1802 42.82 81.2952 42.8017 81.3919 42.765C81.4919 42.7317 81.5685 42.6883 81.6219 42.635C81.6752 42.585 81.7185 42.5217 81.7519 42.445C81.7852 42.3717 81.8052 42.305 81.8119 42.245C81.8219 42.185 81.8285 42.1183 81.8319 42.045V41.62C81.5485 41.9133 81.2035 42.06 80.7969 42.06C80.2469 42.06 79.8435 41.8717 79.5869 41.495C79.3302 41.1183 79.2019 40.595 79.2019 39.925C79.2019 39.6117 79.2369 39.3233 79.3069 39.06C79.3769 38.7933 79.4785 38.56 79.6119 38.36C79.7485 38.1567 79.9252 37.9983 80.1419 37.885C80.3585 37.7683 80.6035 37.71 80.8769 37.71C81.2902 37.71 81.6485 37.8017 81.9519 37.985L82.0369 37.75H82.8019L83.7419 37.795V38.265L83.4419 38.475V41.815C83.4419 43.115 82.7485 43.765 81.3619 43.765ZM81.5219 41.15C81.6219 41.15 81.7252 41.1217 81.8319 41.065V38.43C81.7519 38.4133 81.6785 38.405 81.6119 38.405C81.1685 38.4083 80.9452 38.75 80.9419 39.43V40.205C80.9419 40.4183 80.9702 40.6017 81.0269 40.755C81.1269 41.0183 81.2919 41.15 81.5219 41.15ZM86.299 41.555L86.249 41.61C86.2157 41.65 86.164 41.6967 86.094 41.75C86.0274 41.8033 85.949 41.8567 85.859 41.91C85.7724 41.9633 85.6657 42.0083 85.539 42.045C85.4124 42.085 85.2824 42.105 85.149 42.105C84.249 42.105 83.799 41.66 83.799 40.77C83.799 40.5967 83.8307 40.4383 83.894 40.295C83.9574 40.1483 84.039 40.025 84.139 39.925C84.239 39.825 84.359 39.7367 84.499 39.66C84.639 39.58 84.779 39.5183 84.919 39.475C85.0624 39.4283 85.2124 39.39 85.369 39.36C85.5257 39.33 85.6657 39.31 85.789 39.3C85.9124 39.29 86.0307 39.285 86.144 39.285V39.195C86.144 38.9917 86.089 38.8483 85.979 38.765C85.8724 38.6817 85.699 38.64 85.459 38.64C85.2524 38.64 85.0374 38.665 84.814 38.715C84.5907 38.7617 84.4157 38.8183 84.289 38.885L83.969 38.205C84.1957 38.0583 84.4907 37.93 84.854 37.82C85.2174 37.7067 85.5874 37.65 85.964 37.65C86.2974 37.65 86.5724 37.6833 86.789 37.75C87.0057 37.8133 87.1807 37.9233 87.314 38.08C87.4507 38.2333 87.5474 38.43 87.604 38.67C87.6607 38.9067 87.689 39.2083 87.689 39.575V41.61L87.829 42H86.459L86.299 41.555ZM85.904 41.225C85.9474 41.225 85.9874 41.2167 86.024 41.2C86.064 41.18 86.094 41.1617 86.114 41.145C86.134 41.125 86.144 41.115 86.144 41.115V39.915C85.9407 39.915 85.779 39.9717 85.659 40.085C85.539 40.195 85.479 40.3667 85.479 40.6C85.479 41.0167 85.6207 41.225 85.904 41.225Z" fill="white"/>
</svg>
