<svg width="116" height="55" viewBox="0 0 116 55" fill="none" xmlns="http://www.w3.org/2000/svg">
<path d="M19.1017 34H13.3083L8.19333 12.5133H14.2983L15.27 19.92L16.7183 27.1067L18.57 19.92L19.0467 17.9583L17.635 12.5133H23.63L24.95 19.92L26.5633 27.1067L27.5717 19.92L28.6533 12.5133H34.2267L29.4967 34H23.245L20.99 25.365L19.1017 34ZM45.1548 34L44.3298 30.5717H39.1231L38.4264 34H33.0364L38.6281 13.9983L38.1881 12.5133H45.7598L51.8831 34H45.1548ZM41.4881 18.82L39.8748 26.8317H43.4314L41.4881 18.82ZM58.6379 26.85V34H52.5513V12.5133H54.9713C55.5579 12.5133 56.4318 12.4889 57.5929 12.44C58.754 12.3789 59.7135 12.3483 60.4713 12.3483C63.1113 12.3483 65.079 12.9289 66.3746 14.09C67.6824 15.2511 68.3363 17.0294 68.3363 19.425C68.3363 20.8428 68.0246 22.1017 67.4013 23.2017C66.7902 24.3017 65.9774 25.1756 64.9629 25.8233C65.5129 25.9578 65.9835 26.2694 66.3746 26.7583C66.7779 27.2472 67.0896 27.8278 67.3096 28.5C67.5296 29.16 67.719 29.8322 67.8779 30.5167C68.049 31.1889 68.2385 31.855 68.4463 32.515C68.6663 33.175 68.9046 33.67 69.1613 34H62.3963C62.2618 33.8289 62.1579 33.3522 62.0846 32.57C62.0113 31.7756 61.9074 30.8283 61.7729 29.7283C61.6507 28.6161 61.4735 27.6872 61.2413 26.9417C61.2168 26.9417 61.1863 26.9417 61.1496 26.9417C60.9174 26.9417 60.6668 26.9417 60.3979 26.9417C60.1413 26.9294 59.9152 26.9172 59.7196 26.905C59.524 26.8928 59.3163 26.8806 59.0963 26.8683C58.8885 26.8561 58.7357 26.85 58.6379 26.85ZM58.6379 23.44H59.2246C59.5302 23.44 59.7868 23.4278 59.9946 23.4033C60.2024 23.3789 60.4285 23.3361 60.6729 23.275C60.9296 23.2017 61.1374 23.0917 61.2963 22.945C61.4674 22.7983 61.6263 22.6089 61.7729 22.3767C61.9196 22.1444 62.0296 21.845 62.1029 21.4783C62.1763 21.1117 62.2129 20.6839 62.2129 20.195V18.7467C62.2129 17.6833 61.9318 16.9439 61.3696 16.5283C60.8196 16.1006 60.0252 15.8867 58.9863 15.8867H58.6379V23.44ZM77.9942 34.3667C75.3909 34.3667 73.2703 33.7311 71.6325 32.46L71.6142 32.35L72.6592 29.6917C72.9037 29.8506 73.142 29.9911 73.3742 30.1133C73.6064 30.2356 73.8203 30.3333 74.0159 30.4067C74.2237 30.4678 74.407 30.5228 74.5659 30.5717C74.7248 30.6206 74.8898 30.6511 75.0609 30.6633C75.2442 30.6756 75.3787 30.6878 75.4642 30.7C75.562 30.7 75.6842 30.7 75.8309 30.7C75.9775 30.6878 76.0692 30.6817 76.1059 30.6817C76.7781 30.6817 77.4381 30.5228 78.0859 30.205C78.7459 29.875 79.2898 29.4289 79.7175 28.8667C80.1453 28.3044 80.3592 27.7117 80.3592 27.0883V26.3183C79.8948 26.6728 79.3142 26.9539 78.6175 27.1617C77.9331 27.3572 77.2731 27.455 76.6375 27.455C74.8164 27.455 73.2887 26.7583 72.0542 25.365C70.832 23.9594 70.2209 22.2239 70.2209 20.1583C70.2209 18.5572 70.6059 17.1456 71.3759 15.9233C72.1459 14.7011 73.1848 13.7783 74.4925 13.155C75.8003 12.5194 77.2731 12.2017 78.9109 12.2017C81.4653 12.2017 83.5309 13.0878 85.1075 14.86C86.6842 16.6322 87.4725 18.9361 87.4725 21.7717C87.4725 24.1917 87.0814 26.355 86.2992 28.2617C85.5292 30.1683 84.417 31.6656 82.9625 32.7533C81.5203 33.8289 79.8642 34.3667 77.9942 34.3667ZM78.8559 15.8867C78.4159 15.8867 78.0187 16.0456 77.6642 16.3633C77.3098 16.6689 77.1325 17.0233 77.1325 17.4267V22.2667C77.1325 22.6822 77.3098 23.0428 77.6642 23.3483C78.0187 23.6539 78.4098 23.8067 78.8375 23.8067C79.2287 23.8067 79.6014 23.6783 79.9559 23.4217C80.3103 23.165 80.512 22.8594 80.5609 22.505V17.4267C80.5609 17.0111 80.3836 16.6506 80.0292 16.345C79.6748 16.0394 79.2836 15.8867 78.8559 15.8867ZM101.014 34L100.189 30.5717H94.9825L94.2858 34H88.8958L94.4875 13.9983L94.0475 12.5133H101.619L107.742 34H101.014ZM97.3475 18.82L95.7341 26.8317H99.2908L97.3475 18.82Z" fill="#00639B"/>
<path d="M2.77333 47.14C2.43111 47.14 2.11111 47.1089 1.81333 47.0467C1.52 46.9889 1.27333 46.9111 1.07333 46.8133C0.873333 46.7156 0.708889 46.6222 0.58 46.5333C0.455556 46.4444 0.351111 46.3556 0.266667 46.2667L0.433333 44.6467C0.615556 44.8911 0.86 45.1044 1.16667 45.2867C1.47333 45.4644 1.80444 45.5533 2.16 45.5533C2.51556 45.5533 2.77111 45.5156 2.92667 45.44C3.08667 45.3644 3.16667 45.2267 3.16667 45.0267C3.16667 44.8133 3.07556 44.6311 2.89333 44.48C2.71556 44.3289 2.40667 44.1467 1.96667 43.9333C1.80667 43.8533 1.67111 43.7822 1.56 43.72C1.44889 43.6533 1.3 43.5467 1.11333 43.4C0.931111 43.2489 0.782222 43.0933 0.666667 42.9333C0.551111 42.7689 0.448889 42.56 0.36 42.3067C0.271111 42.0489 0.226667 41.7733 0.226667 41.48C0.226667 39.8933 1.12222 39.1 2.91333 39.1C3.19778 39.1 3.46444 39.1311 3.71333 39.1933C3.96667 39.2511 4.16444 39.3156 4.30667 39.3867C4.44889 39.4578 4.57778 39.5422 4.69333 39.64C4.81333 39.7333 4.88889 39.8 4.92 39.84C4.95111 39.8756 4.97333 39.9044 4.98667 39.9267L4.65333 41.2133C4.48 41.0089 4.26222 40.8578 4 40.76C3.74222 40.6578 3.49556 40.6067 3.26 40.6067C2.69111 40.6067 2.40667 40.7844 2.40667 41.14C2.40667 41.2333 2.42444 41.3178 2.46 41.3933C2.49556 41.4689 2.55333 41.5378 2.63333 41.6C2.71333 41.6622 2.78667 41.7156 2.85333 41.76C2.92444 41.8044 3.02 41.86 3.14 41.9267C3.26444 41.9889 3.35778 42.04 3.42 42.08C4.06889 42.3556 4.54444 42.6822 4.84667 43.06C5.15333 43.4378 5.30667 43.8978 5.30667 44.44C5.30667 45.32 5.08889 45.9911 4.65333 46.4533C4.22222 46.9111 3.59556 47.14 2.77333 47.14ZM6.08641 47V42.6867L5.68641 42.44V41.7267L7.11974 41.3333H8.23307V47H6.08641ZM7.05307 40.72L5.95974 39.62V39.3867L7.05307 38.2933H7.30641L8.44641 39.3867V39.62L7.30641 40.72H7.05307ZM10.9061 47.14C10.4884 47.14 10.0661 47.0711 9.63948 46.9333C9.21281 46.7911 8.93948 46.6533 8.81948 46.52L8.99281 45.4467C9.14392 45.5933 9.39503 45.72 9.74615 45.8267C10.1017 45.9333 10.4639 45.9867 10.8328 45.9867C11.0995 45.9867 11.2817 45.9533 11.3795 45.8867C11.4817 45.82 11.5328 45.7267 11.5328 45.6067C11.5328 45.4911 11.4439 45.3889 11.2661 45.3C11.0884 45.2067 10.7995 45.1 10.3995 44.98C9.36392 44.6689 8.84615 44.0244 8.84615 43.0467C8.84615 42.6467 8.9617 42.3044 9.19281 42.02C9.42392 41.7311 9.71948 41.5222 10.0795 41.3933C10.4395 41.2644 10.8417 41.2 11.2861 41.2C12.0461 41.2 12.6061 41.34 12.9661 41.62C13.0461 41.6956 13.0861 41.7333 13.0861 41.7333L12.7928 42.6867C12.4995 42.3978 12.095 42.2533 11.5795 42.2533C11.1573 42.2533 10.9461 42.3778 10.9461 42.6267C10.9461 42.6978 10.9617 42.7578 10.9928 42.8067C11.0239 42.8511 11.075 42.8911 11.1461 42.9267C11.2217 42.9578 11.295 42.9844 11.3661 43.0067C11.4373 43.0244 11.5373 43.0511 11.6661 43.0867C11.795 43.1178 11.9061 43.1467 11.9995 43.1733C12.5195 43.3467 12.8973 43.5911 13.1328 43.9067C13.3684 44.2222 13.4861 44.6156 13.4861 45.0867C13.4861 46.4556 12.6261 47.14 10.9061 47.14ZM15.6152 47.14C15.0152 47.14 14.5952 46.96 14.3552 46.6C14.1196 46.24 14.0018 45.6311 14.0018 44.7733V42.5067H13.5418V41.58L14.3285 41.3333L15.0085 39.78H16.1818V41.3333H17.2752V42.5067H16.1618V44.9867C16.1618 45.3422 16.2129 45.5778 16.3152 45.6933C16.4174 45.8089 16.5752 45.8667 16.7885 45.8667C16.8818 45.8667 16.9663 45.8556 17.0418 45.8333C17.1174 45.8111 17.1796 45.78 17.2285 45.74V46.6467C17.1618 46.7133 17.0752 46.78 16.9685 46.8467C16.8618 46.9089 16.684 46.9733 16.4352 47.04C16.1907 47.1067 15.9174 47.14 15.6152 47.14ZM20.8571 43.5533C20.8571 42.9889 20.8282 42.5889 20.7704 42.3533C20.7126 42.1178 20.606 42 20.4504 42C20.3171 42 20.2082 42.0244 20.1237 42.0733C20.0393 42.1178 19.9771 42.1911 19.9371 42.2933C19.8971 42.3911 19.8704 42.4933 19.8571 42.6C19.8482 42.7022 19.8438 42.8333 19.8438 42.9933V43.5533H20.8571ZM20.3238 47.14C19.826 47.14 19.3926 47.0644 19.0237 46.9133C18.6593 46.7622 18.3704 46.5511 18.1571 46.28C17.9482 46.0089 17.7949 45.7044 17.6971 45.3667C17.5993 45.0244 17.5504 44.6444 17.5504 44.2267C17.5504 43.2311 17.8037 42.4778 18.3104 41.9667C18.8171 41.4556 19.526 41.2 20.4371 41.2C21.3126 41.2 21.9393 41.4067 22.3171 41.82C22.6949 42.2289 22.8838 42.8889 22.8838 43.8V44.54H19.8371V44.6667C19.8371 44.9289 19.8638 45.1444 19.9171 45.3133C19.9749 45.4822 20.0571 45.6067 20.1638 45.6867C20.2704 45.7667 20.3793 45.82 20.4904 45.8467C20.6015 45.8733 20.7371 45.8867 20.8971 45.8867C21.0526 45.8867 21.2193 45.8667 21.3971 45.8267C21.5793 45.7867 21.7615 45.7244 21.9438 45.64C22.1304 45.5556 22.286 45.4556 22.4104 45.34L22.8038 46.0133C22.6393 46.28 22.3971 46.5044 22.0771 46.6867C21.7615 46.8644 21.4571 46.9844 21.1637 47.0467C20.8704 47.1089 20.5904 47.14 20.3238 47.14ZM25.7593 47H23.6059V42.6867L23.2059 42.44V41.7267L24.6393 41.3333H25.7726V42.1933C25.7948 42.1622 25.8259 42.1222 25.8659 42.0733C25.9104 42.02 25.9904 41.9378 26.1059 41.8267C26.2215 41.7156 26.3393 41.6178 26.4593 41.5333C26.5837 41.4489 26.7326 41.3733 26.9059 41.3067C27.0837 41.2356 27.2593 41.2 27.4326 41.2C27.877 41.2 28.217 41.2844 28.4526 41.4533C28.6882 41.6222 28.8548 41.8978 28.9526 42.28C29.1037 42.0178 29.3348 41.7733 29.6459 41.5467C29.9615 41.3156 30.3082 41.2 30.6859 41.2C31.1037 41.2 31.4282 41.2733 31.6593 41.42C31.8948 41.5622 32.0659 41.8067 32.1726 42.1533C32.2793 42.5 32.3326 42.9889 32.3326 43.62V47H30.1659V43.4267C30.1659 43.2311 30.1193 43.0778 30.0259 42.9667C29.9326 42.8556 29.7904 42.8 29.5993 42.8C29.4704 42.8 29.2948 42.9067 29.0726 43.12C29.0859 43.3333 29.0926 43.5644 29.0926 43.8133V47H26.8926V43.4267C26.9059 43.0089 26.7282 42.8 26.3593 42.8C26.3326 42.8 26.3059 42.8022 26.2793 42.8067C26.257 42.8111 26.2348 42.8156 26.2126 42.82C26.1948 42.8244 26.1726 42.8333 26.1459 42.8467C26.1237 42.8556 26.1037 42.8644 26.0859 42.8733C26.0682 42.8778 26.0482 42.8889 26.0259 42.9067C26.0037 42.92 25.9859 42.9311 25.9726 42.94C25.9593 42.9489 25.9393 42.9644 25.9126 42.9867C25.8904 43.0044 25.8726 43.0178 25.8593 43.0267C25.8504 43.0356 25.8326 43.0511 25.8059 43.0733C25.7837 43.0911 25.7682 43.1044 25.7593 43.1133V47ZM35.7987 47V39.1867H38.072V47H35.7987ZM41.2085 47H39.0552V42.6867L38.6552 42.44V41.7267L40.0885 41.3333H41.2218V42.1933L41.3018 42.0933C41.3552 42.0222 41.4329 41.9378 41.5352 41.84C41.6418 41.7422 41.7596 41.6467 41.8885 41.5533C42.0174 41.4556 42.1707 41.3733 42.3485 41.3067C42.5307 41.2356 42.7085 41.2 42.8818 41.2C43.4907 41.2 43.9196 41.3667 44.1685 41.7C44.4218 42.0333 44.5485 42.5911 44.5485 43.3733C44.5485 43.4 44.5485 43.44 44.5485 43.4933C44.544 43.5467 44.5418 43.5889 44.5418 43.62V47H42.3418V43.4267C42.3552 43.0089 42.1774 42.8 41.8085 42.8C41.7818 42.8 41.7552 42.8022 41.7285 42.8067C41.7063 42.8111 41.684 42.8156 41.6618 42.82C41.644 42.8244 41.6218 42.8333 41.5952 42.8467C41.5729 42.8556 41.5529 42.8644 41.5352 42.8733C41.5174 42.8778 41.4974 42.8889 41.4752 42.9067C41.4529 42.92 41.4352 42.9311 41.4218 42.94C41.4085 42.9489 41.3885 42.9644 41.3618 42.9867C41.3396 43.0044 41.3218 43.0178 41.3085 43.0267C41.2996 43.0356 41.2818 43.0511 41.2552 43.0733C41.2329 43.0911 41.2174 43.1044 41.2085 43.1133V47ZM47.7033 47H45.5366V42.5067H44.8899V41.62L45.5633 41.3333V40.7533C45.5633 40.3044 45.6255 39.9156 45.7499 39.5867C45.8744 39.2578 46.0477 39.0022 46.2699 38.82C46.4966 38.6378 46.7455 38.5067 47.0166 38.4267C47.2922 38.3422 47.5988 38.3 47.9366 38.3C48.2388 38.3 48.5233 38.34 48.7899 38.42C49.0566 38.5 49.2233 38.5733 49.2899 38.64L49.0366 39.6533C48.8233 39.5467 48.6033 39.4933 48.3766 39.4933C48.3188 39.4933 48.2655 39.4978 48.2166 39.5067C47.8744 39.56 47.7033 39.8511 47.7033 40.38V41.3333H48.5633V42.5067H47.7033V47ZM51.8133 46.34C52.0088 46.34 52.1577 46.26 52.2599 46.1C52.3666 45.9356 52.4199 45.7111 52.4199 45.4267V43.32C52.4199 42.4533 52.2155 42.02 51.8066 42.02C51.6155 42.02 51.4666 42.0978 51.3599 42.2533C51.2533 42.4089 51.1999 42.6289 51.1999 42.9133V45.08C51.1999 45.92 51.4044 46.34 51.8133 46.34ZM51.7599 47.14C50.7422 47.14 49.9977 46.9089 49.5266 46.4467C49.0555 45.9844 48.8199 45.2467 48.8199 44.2333C48.8199 43.2289 49.0577 42.4733 49.5333 41.9667C50.0088 41.4556 50.7822 41.2 51.8533 41.2C52.8977 41.2 53.6511 41.4444 54.1133 41.9333C54.5799 42.4178 54.8133 43.1533 54.8133 44.14C54.8133 45.1622 54.5666 45.9178 54.0733 46.4067C53.5844 46.8956 52.8133 47.14 51.7599 47.14ZM57.6929 47H55.5395V42.6867L55.1395 42.44V41.6867L56.5729 41.3333H57.1129L57.3062 42.92C57.4884 41.8311 58.0729 41.2867 59.0595 41.2867C59.1706 41.2867 59.2862 41.3067 59.4062 41.3467L59.1795 43.72C59.0862 43.6356 58.8818 43.5933 58.5662 43.5933C58.1129 43.5933 57.8218 43.7133 57.6929 43.9533V47ZM62.0874 47H59.9341V42.6867L59.5341 42.44V41.7267L60.9674 41.3333H62.1007V42.1933C62.123 42.1622 62.1541 42.1222 62.1941 42.0733C62.2385 42.02 62.3185 41.9378 62.4341 41.8267C62.5496 41.7156 62.6674 41.6178 62.7874 41.5333C62.9118 41.4489 63.0607 41.3733 63.2341 41.3067C63.4118 41.2356 63.5874 41.2 63.7607 41.2C64.2052 41.2 64.5452 41.2844 64.7807 41.4533C65.0163 41.6222 65.183 41.8978 65.2807 42.28C65.4318 42.0178 65.663 41.7733 65.9741 41.5467C66.2896 41.3156 66.6363 41.2 67.0141 41.2C67.4318 41.2 67.7563 41.2733 67.9874 41.42C68.223 41.5622 68.3941 41.8067 68.5007 42.1533C68.6074 42.5 68.6607 42.9889 68.6607 43.62V47H66.4941V43.4267C66.4941 43.2311 66.4474 43.0778 66.3541 42.9667C66.2607 42.8556 66.1185 42.8 65.9274 42.8C65.7985 42.8 65.623 42.9067 65.4007 43.12C65.4141 43.3333 65.4207 43.5644 65.4207 43.8133V47H63.2207V43.4267C63.2341 43.0089 63.0563 42.8 62.6874 42.8C62.6607 42.8 62.6341 42.8022 62.6074 42.8067C62.5852 42.8111 62.563 42.8156 62.5407 42.82C62.523 42.8244 62.5007 42.8333 62.4741 42.8467C62.4518 42.8556 62.4318 42.8644 62.4141 42.8733C62.3963 42.8778 62.3763 42.8889 62.3541 42.9067C62.3318 42.92 62.3141 42.9311 62.3007 42.94C62.2874 42.9489 62.2674 42.9644 62.2407 42.9867C62.2185 43.0044 62.2007 43.0178 62.1874 43.0267C62.1785 43.0356 62.1607 43.0511 62.1341 43.0733C62.1118 43.0911 62.0963 43.1044 62.0874 43.1133V47ZM72.3844 46.4067L72.3177 46.48C72.2733 46.5333 72.2044 46.5956 72.111 46.6667C72.0222 46.7378 71.9177 46.8089 71.7977 46.88C71.6822 46.9511 71.5399 47.0111 71.371 47.06C71.2022 47.1133 71.0288 47.14 70.851 47.14C69.651 47.14 69.051 46.5467 69.051 45.36C69.051 45.1289 69.0933 44.9178 69.1777 44.7267C69.2622 44.5311 69.371 44.3667 69.5044 44.2333C69.6377 44.1 69.7977 43.9822 69.9844 43.88C70.171 43.7733 70.3577 43.6911 70.5444 43.6333C70.7355 43.5711 70.9355 43.52 71.1444 43.48C71.3533 43.44 71.5399 43.4133 71.7044 43.4C71.8688 43.3867 72.0266 43.38 72.1777 43.38V43.26C72.1777 42.9889 72.1044 42.7978 71.9577 42.6867C71.8155 42.5756 71.5844 42.52 71.2644 42.52C70.9888 42.52 70.7022 42.5533 70.4044 42.62C70.1066 42.6822 69.8733 42.7578 69.7044 42.8467L69.2777 41.94C69.5799 41.7444 69.9733 41.5733 70.4577 41.4267C70.9422 41.2756 71.4355 41.2 71.9377 41.2C72.3822 41.2 72.7488 41.2444 73.0377 41.3333C73.3266 41.4178 73.5599 41.5644 73.7377 41.7733C73.9199 41.9778 74.0488 42.24 74.1244 42.56C74.1999 42.8756 74.2377 43.2778 74.2377 43.7667V46.48L74.4244 47H72.5977L72.3844 46.4067ZM71.8577 45.9667C71.9155 45.9667 71.9688 45.9556 72.0177 45.9333C72.071 45.9067 72.111 45.8822 72.1377 45.86C72.1644 45.8333 72.1777 45.82 72.1777 45.82V44.22C71.9066 44.22 71.691 44.2956 71.531 44.4467C71.371 44.5933 71.291 44.8222 71.291 45.1333C71.291 45.6889 71.4799 45.9667 71.8577 45.9667ZM76.8436 47.14C76.4259 47.14 76.0036 47.0711 75.577 46.9333C75.1503 46.7911 74.877 46.6533 74.757 46.52L74.9303 45.4467C75.0814 45.5933 75.3325 45.72 75.6836 45.8267C76.0392 45.9333 76.4014 45.9867 76.7703 45.9867C77.037 45.9867 77.2192 45.9533 77.317 45.8867C77.4192 45.82 77.4703 45.7267 77.4703 45.6067C77.4703 45.4911 77.3814 45.3889 77.2036 45.3C77.0259 45.2067 76.737 45.1 76.337 44.98C75.3014 44.6689 74.7836 44.0244 74.7836 43.0467C74.7836 42.6467 74.8992 42.3044 75.1303 42.02C75.3614 41.7311 75.657 41.5222 76.017 41.3933C76.377 41.2644 76.7792 41.2 77.2236 41.2C77.9836 41.2 78.5436 41.34 78.9036 41.62C78.9836 41.6956 79.0236 41.7333 79.0236 41.7333L78.7303 42.6867C78.437 42.3978 78.0325 42.2533 77.517 42.2533C77.0948 42.2533 76.8836 42.3778 76.8836 42.6267C76.8836 42.6978 76.8992 42.7578 76.9303 42.8067C76.9614 42.8511 77.0125 42.8911 77.0836 42.9267C77.1592 42.9578 77.2325 42.9844 77.3036 43.0067C77.3748 43.0244 77.4748 43.0511 77.6036 43.0867C77.7325 43.1178 77.8436 43.1467 77.937 43.1733C78.457 43.3467 78.8348 43.5911 79.0703 43.9067C79.3059 44.2222 79.4236 44.6156 79.4236 45.0867C79.4236 46.4556 78.5636 47.14 76.8436 47.14ZM79.9927 47V42.6867L79.5927 42.44V41.7267L81.026 41.3333H82.1393V47H79.9927ZM80.9593 40.72L79.866 39.62V39.3867L80.9593 38.2933H81.2127L82.3527 39.3867V39.62L81.2127 40.72H80.9593ZM88.8882 47H86.7815L84.9215 39.1867H87.1415L87.4948 41.88L88.0215 44.4933L88.6948 41.88L88.8682 41.1667L88.3548 39.1867H90.5348L91.0148 41.88L91.6015 44.4933L91.9682 41.88L92.3615 39.1867H94.3882L92.6682 47H90.3948L89.5748 43.86L88.8882 47ZM97.482 46.4067L97.4154 46.48C97.3709 46.5333 97.302 46.5956 97.2087 46.6667C97.1198 46.7378 97.0154 46.8089 96.8954 46.88C96.7798 46.9511 96.6376 47.0111 96.4687 47.06C96.2998 47.1133 96.1265 47.14 95.9487 47.14C94.7487 47.14 94.1487 46.5467 94.1487 45.36C94.1487 45.1289 94.1909 44.9178 94.2754 44.7267C94.3598 44.5311 94.4687 44.3667 94.602 44.2333C94.7354 44.1 94.8954 43.9822 95.082 43.88C95.2687 43.7733 95.4554 43.6911 95.642 43.6333C95.8331 43.5711 96.0331 43.52 96.242 43.48C96.4509 43.44 96.6376 43.4133 96.802 43.4C96.9665 43.3867 97.1243 43.38 97.2754 43.38V43.26C97.2754 42.9889 97.202 42.7978 97.0554 42.6867C96.9131 42.5756 96.682 42.52 96.362 42.52C96.0865 42.52 95.7998 42.5533 95.502 42.62C95.2043 42.6822 94.9709 42.7578 94.802 42.8467L94.3754 41.94C94.6776 41.7444 95.0709 41.5733 95.5554 41.4267C96.0398 41.2756 96.5331 41.2 97.0354 41.2C97.4798 41.2 97.8465 41.2444 98.1354 41.3333C98.4243 41.4178 98.6576 41.5644 98.8354 41.7733C99.0176 41.9778 99.1465 42.24 99.222 42.56C99.2976 42.8756 99.3354 43.2778 99.3354 43.7667V46.48L99.522 47H97.6954L97.482 46.4067ZM96.9554 45.9667C97.0131 45.9667 97.0665 45.9556 97.1154 45.9333C97.1687 45.9067 97.2087 45.8822 97.2354 45.86C97.262 45.8333 97.2754 45.82 97.2754 45.82V44.22C97.0043 44.22 96.7887 44.2956 96.6287 44.4467C96.4687 44.5933 96.3887 44.8222 96.3887 45.1333C96.3887 45.6889 96.5776 45.9667 96.9554 45.9667ZM102.341 47H100.188V42.6867L99.788 42.44V41.6867L101.221 41.3333H101.761L101.955 42.92C102.137 41.8311 102.721 41.2867 103.708 41.2867C103.819 41.2867 103.935 41.3067 104.055 41.3467L103.828 43.72C103.735 43.6356 103.53 43.5933 103.215 43.5933C102.761 43.5933 102.47 43.7133 102.341 43.9533V47ZM107.149 49.3533C106.802 49.3533 106.411 49.2733 105.976 49.1133C105.54 48.9578 105.258 48.8089 105.129 48.6667L105.549 47.7533C105.66 47.8378 105.84 47.9156 106.089 47.9867C106.338 48.0578 106.551 48.0933 106.729 48.0933C106.907 48.0933 107.06 48.0689 107.189 48.02C107.322 47.9756 107.425 47.9178 107.496 47.8467C107.567 47.78 107.625 47.6956 107.669 47.5933C107.714 47.4956 107.74 47.4067 107.749 47.3267C107.762 47.2467 107.771 47.1578 107.776 47.06V46.4933C107.398 46.8844 106.938 47.08 106.396 47.08C105.663 47.08 105.125 46.8289 104.782 46.3267C104.44 45.8244 104.269 45.1267 104.269 44.2333C104.269 43.8156 104.316 43.4311 104.409 43.08C104.502 42.7244 104.638 42.4133 104.816 42.1467C104.998 41.8756 105.234 41.6644 105.522 41.5133C105.811 41.3578 106.138 41.28 106.503 41.28C107.054 41.28 107.531 41.4022 107.936 41.6467L108.049 41.3333H109.069L110.322 41.3933V42.02L109.922 42.3V46.7533C109.922 48.4867 108.998 49.3533 107.149 49.3533ZM107.362 45.8667C107.496 45.8667 107.634 45.8289 107.776 45.7533V42.24C107.669 42.2178 107.571 42.2067 107.483 42.2067C106.891 42.2111 106.594 42.6667 106.589 43.5733V44.6067C106.589 44.8911 106.627 45.1356 106.702 45.34C106.836 45.6911 107.056 45.8667 107.362 45.8667ZM113.732 46.4067L113.665 46.48C113.621 46.5333 113.552 46.5956 113.459 46.6667C113.37 46.7378 113.265 46.8089 113.145 46.88C113.03 46.9511 112.888 47.0111 112.719 47.06C112.55 47.1133 112.376 47.14 112.199 47.14C110.999 47.14 110.399 46.5467 110.399 45.36C110.399 45.1289 110.441 44.9178 110.525 44.7267C110.61 44.5311 110.719 44.3667 110.852 44.2333C110.985 44.1 111.145 43.9822 111.332 43.88C111.519 43.7733 111.705 43.6911 111.892 43.6333C112.083 43.5711 112.283 43.52 112.492 43.48C112.701 43.44 112.888 43.4133 113.052 43.4C113.216 43.3867 113.374 43.38 113.525 43.38V43.26C113.525 42.9889 113.452 42.7978 113.305 42.6867C113.163 42.5756 112.932 42.52 112.612 42.52C112.336 42.52 112.05 42.5533 111.752 42.62C111.454 42.6822 111.221 42.7578 111.052 42.8467L110.625 41.94C110.928 41.7444 111.321 41.5733 111.805 41.4267C112.29 41.2756 112.783 41.2 113.285 41.2C113.73 41.2 114.096 41.2444 114.385 41.3333C114.674 41.4178 114.908 41.5644 115.085 41.7733C115.268 41.9778 115.396 42.24 115.472 42.56C115.548 42.8756 115.585 43.2778 115.585 43.7667V46.48L115.772 47H113.945L113.732 46.4067ZM113.205 45.9667C113.263 45.9667 113.316 45.9556 113.365 45.9333C113.419 45.9067 113.459 45.8822 113.485 45.86C113.512 45.8333 113.525 45.82 113.525 45.82V44.22C113.254 44.22 113.039 44.2956 112.879 44.4467C112.719 44.5933 112.639 44.8222 112.639 45.1333C112.639 45.6889 112.828 45.9667 113.205 45.9667Z" fill="#00639B"/>
</svg>
