<svg width="99" height="138" viewBox="0 0 99 138" fill="none" xmlns="http://www.w3.org/2000/svg">
<path d="M82.955 11.1364H76.2754C73.8672 11.1364 71.9154 13.0884 71.9154 15.4964V39.7763C71.9154 42.1842 73.8672 44.1362 76.2754 44.1362H82.955C85.3632 44.1362 87.315 42.1842 87.315 39.7763V15.4964C87.315 13.0884 85.3632 11.1364 82.955 11.1364Z" fill="white"/>
<path d="M57.9781 134.998V111.996H86.2927L61.7339 136.555C61.4261 136.863 61.0339 137.073 60.6069 137.158C60.18 137.242 59.7374 137.199 59.3353 137.032C58.9332 136.865 58.5895 136.583 58.3479 136.221C58.1064 135.859 57.9776 135.433 57.9781 134.998Z" fill="white"/>
<path d="M87.8096 110.567H57.9781V113.324H84.9094L87.8096 110.567Z" fill="#00639B"/>
<path d="M93.9425 42.4631L53.1948 1.71157C52.0928 0.615029 50.6014 -0.000549316 49.0468 -0.000549316C47.4922 -0.000549316 46.0008 0.615029 44.8988 1.71157L4.15179 42.4631C1.66529 45.2285 0.200168 48.7617 0 52.4753V59.6534C22.2616 76.216 49.2797 85.1402 77.0266 85.0957C84.0831 85.097 91.1281 84.5234 98.0917 83.3807V52.4753C97.8893 48.7627 96.4258 45.2304 93.9425 42.4631Z" fill="white"/>
<path d="M77.0278 91.696C49.281 91.7399 22.2629 82.8156 0.0012207 66.2537V105.029C0.00625608 106.583 0.625917 108.072 1.72494 109.171C2.82396 110.27 4.31309 110.89 5.86733 110.895H92.2275C93.7814 110.89 95.2703 110.27 96.3697 109.171C97.4685 108.071 98.0879 106.582 98.093 105.029V89.981C91.1294 91.1237 84.0843 91.6973 77.0278 91.696Z" fill="white"/>
</svg>
