<svg width="20" height="18" viewBox="0 0 20 18" fill="none" xmlns="http://www.w3.org/2000/svg">
<path d="M14.6375 12.2285C15.0507 11.9463 15.5332 11.7821 16.0328 11.7538C16.5324 11.7255 17.0303 11.834 17.4728 12.0677C17.9153 12.3014 18.2856 12.6514 18.5439 13.08C18.8022 13.5086 18.9386 13.9996 18.9385 14.5C18.9385 14.5739 18.9354 14.6476 18.9293 14.7209C17.8295 15.1051 16.6613 15.2547 15.5001 15.16C15.4966 14.1211 15.1974 13.1037 14.6375 12.2285ZM14.6375 12.2285C14.1403 11.4494 13.4547 10.8082 12.6442 10.3641C11.8337 9.92 10.9243 9.68729 10.0001 9.6875C9.07602 9.68745 8.16683 9.92022 7.35648 10.3643C6.54613 10.8084 5.86074 11.4496 5.36359 12.2285M15.4992 15.1591L15.5001 15.1875C15.5001 15.3934 15.4888 15.5969 15.4662 15.798C13.8028 16.7525 11.9179 17.2532 10.0001 17.25C8.01092 17.25 6.14367 16.722 4.534 15.798C4.51031 15.5859 4.49899 15.3725 4.50009 15.1591M4.50009 15.1591C3.33926 15.257 2.17176 15.108 1.07267 14.7218C1.03083 14.2044 1.13628 13.6857 1.37685 13.2257C1.61741 12.7657 1.98326 12.3832 2.43209 12.1224C2.88092 11.8616 3.3944 11.7332 3.91316 11.752C4.43193 11.7707 4.93478 11.9359 5.36359 12.2285M4.50009 15.1591C4.50333 14.1202 4.80403 13.1038 5.36359 12.2285M12.7501 4.1875C12.7501 4.91685 12.4604 5.61632 11.9446 6.13204C11.4289 6.64777 10.7294 6.9375 10.0001 6.9375C9.27074 6.9375 8.57127 6.64777 8.05554 6.13204C7.53982 5.61632 7.25009 4.91685 7.25009 4.1875C7.25009 3.45815 7.53982 2.75868 8.05554 2.24296C8.57127 1.72723 9.27074 1.4375 10.0001 1.4375C10.7294 1.4375 11.4289 1.72723 11.9446 2.24296C12.4604 2.75868 12.7501 3.45815 12.7501 4.1875ZM18.2501 6.9375C18.2501 7.20835 18.1967 7.47655 18.0931 7.72678C17.9894 7.97702 17.8375 8.20439 17.646 8.39591C17.4545 8.58743 17.2271 8.73935 16.9769 8.843C16.7266 8.94665 16.4584 9 16.1876 9C15.9167 9 15.6485 8.94665 15.3983 8.843C15.1481 8.73935 14.9207 8.58743 14.7292 8.39591C14.5377 8.20439 14.3857 7.97702 14.2821 7.72678C14.1784 7.47655 14.1251 7.20835 14.1251 6.9375C14.1251 6.39049 14.3424 5.86589 14.7292 5.47909C15.116 5.0923 15.6406 4.875 16.1876 4.875C16.7346 4.875 17.2592 5.0923 17.646 5.47909C18.0328 5.86589 18.2501 6.39049 18.2501 6.9375ZM5.87509 6.9375C5.87509 7.20835 5.82174 7.47655 5.71809 7.72678C5.61444 7.97702 5.46252 8.20439 5.271 8.39591C5.07947 8.58743 4.85211 8.73935 4.60187 8.843C4.35164 8.94665 4.08344 9 3.81259 9C3.54174 9 3.27354 8.94665 3.0233 8.843C2.77307 8.73935 2.5457 8.58743 2.35418 8.39591C2.16266 8.20439 2.01074 7.97702 1.90709 7.72678C1.80344 7.47655 1.75009 7.20835 1.75009 6.9375C1.75009 6.39049 1.96739 5.86589 2.35418 5.47909C2.74097 5.0923 3.26558 4.875 3.81259 4.875C4.3596 4.875 4.8842 5.0923 5.271 5.47909C5.65779 5.86589 5.87509 6.39049 5.87509 6.9375Z" stroke="white" stroke-width="1.5" stroke-linecap="round" stroke-linejoin="round"/>
</svg>
