<svg width="16" height="18" viewBox="0 0 16 18" fill="none" xmlns="http://www.w3.org/2000/svg">
<path d="M10.2 0.199951C10.7835 0.199951 11.3431 0.431736 11.7557 0.844316C12.1683 1.2569 12.4 1.81647 12.4 2.39995V11.2H13.5V2.69475C13.8345 2.88784 14.1122 3.16555 14.3053 3.49998C14.4984 3.83441 14.6 4.21378 14.6 4.59995V11.4948C14.9345 11.6878 15.2122 11.9656 15.4053 12.3C15.5984 12.6344 15.7 13.0138 15.7 13.4V15.05C15.7 15.7793 15.4103 16.4788 14.8946 16.9945C14.3789 17.5102 13.6794 17.8 12.95 17.8H3.05005C2.3207 17.8 1.62123 17.5102 1.10551 16.9945C0.58978 16.4788 0.300049 15.7793 0.300049 15.05V7.89995C0.300059 7.51378 0.401717 7.13441 0.594807 6.79998C0.787897 6.46555 1.06561 6.18784 1.40005 5.99475V2.39995C1.40005 1.81647 1.63183 1.2569 2.04441 0.844316C2.45699 0.431736 3.01657 0.199951 3.60005 0.199951H10.2ZM2.50005 5.69995H4.56695C5.15038 5.70008 5.70987 5.93194 6.12235 6.34455L10.6554 10.8777C10.8291 11.0516 11.0561 11.1624 11.3 11.1923V2.39995C11.3 2.10821 11.1842 1.82842 10.9779 1.62213C10.7716 1.41584 10.4918 1.29995 10.2 1.29995H3.60005C3.30831 1.29995 3.02852 1.41584 2.82223 1.62213C2.61594 1.82842 2.50005 2.10821 2.50005 2.39995V5.69995ZM1.40005 7.89995V15.05C1.40005 15.4876 1.57389 15.9072 1.88332 16.2167C2.19276 16.5261 2.61244 16.7 3.05005 16.7H12.95C13.3877 16.7 13.8073 16.5261 14.1168 16.2167C14.4262 15.9072 14.6 15.4876 14.6 15.05V13.4C14.6 13.1082 14.4842 12.8284 14.2779 12.6221C14.0716 12.4158 13.7918 12.3 13.5 12.3H11.4331C10.8497 12.2998 10.2902 12.068 9.87775 11.6554L5.34465 7.12225C5.13841 6.91595 4.85866 6.80001 4.56695 6.79995H2.50005C2.20831 6.79995 1.92852 6.91584 1.72223 7.12213C1.51594 7.32842 1.40005 7.60821 1.40005 7.89995Z" fill="white"/>
</svg>
