<svg width="22" height="21" viewBox="0 0 22 21" fill="none" xmlns="http://www.w3.org/2000/svg">
<path d="M2.5625 20.625C2.5625 20.625 0.875 20.625 0.875 18.9375C0.875 17.25 2.5625 12.1875 11 12.1875C19.4375 12.1875 21.125 17.25 21.125 18.9375C21.125 20.625 19.4375 20.625 19.4375 20.625H2.5625ZM11 10.5C12.3427 10.5 13.6303 9.96663 14.5797 9.01723C15.5291 8.06782 16.0625 6.78016 16.0625 5.4375C16.0625 4.09484 15.5291 2.80717 14.5797 1.85777C13.6303 0.908369 12.3427 0.375 11 0.375C9.65734 0.375 8.36968 0.908369 7.42027 1.85777C6.47087 2.80717 5.9375 4.09484 5.9375 5.4375C5.9375 6.78016 6.47087 8.06782 7.42027 9.01723C8.36968 9.96663 9.65734 10.5 11 10.5Z" fill="#A2A2A2"/>
</svg>
