<svg width="22" height="24" viewBox="0 0 22 24" fill="none" xmlns="http://www.w3.org/2000/svg">
<path d="M6.33333 14.3333C6.00278 14.3333 5.72589 14.2213 5.50267 13.9973C5.27944 13.7733 5.16744 13.4964 5.16667 13.1667C5.16589 12.8369 5.27789 12.56 5.50267 12.336C5.72744 12.112 6.00433 12 6.33333 12C6.66233 12 6.93961 12.112 7.16517 12.336C7.39072 12.56 7.50233 12.8369 7.5 13.1667C7.49767 13.4964 7.38567 13.7737 7.164 13.9985C6.94233 14.2233 6.66544 14.3349 6.33333 14.3333ZM11 14.3333C10.6694 14.3333 10.3926 14.2213 10.1693 13.9973C9.94611 13.7733 9.83411 13.4964 9.83333 13.1667C9.83255 12.8369 9.94456 12.56 10.1693 12.336C10.3941 12.112 10.671 12 11 12C11.329 12 11.6063 12.112 11.8318 12.336C12.0574 12.56 12.169 12.8369 12.1667 13.1667C12.1643 13.4964 12.0523 13.7737 11.8307 13.9985C11.609 14.2233 11.3321 14.3349 11 14.3333ZM15.6667 14.3333C15.3361 14.3333 15.0592 14.2213 14.836 13.9973C14.6128 13.7733 14.5008 13.4964 14.5 13.1667C14.4992 12.8369 14.6112 12.56 14.836 12.336C15.0608 12.112 15.3377 12 15.6667 12C15.9957 12 16.2729 12.112 16.4985 12.336C16.7241 12.56 16.8357 12.8369 16.8333 13.1667C16.831 13.4964 16.719 13.7737 16.4973 13.9985C16.2757 14.2233 15.9988 14.3349 15.6667 14.3333ZM2.83333 23.6667C2.19167 23.6667 1.64256 23.4384 1.186 22.9818C0.729444 22.5253 0.500778 21.9758 0.5 21.3333V5C0.5 4.35833 0.728667 3.80922 1.186 3.35267C1.64333 2.89611 2.19244 2.66744 2.83333 2.66667H4V0.333333H6.33333V2.66667H15.6667V0.333333H18V2.66667H19.1667C19.8083 2.66667 20.3578 2.89533 20.8152 3.35267C21.2725 3.81 21.5008 4.35911 21.5 5V21.3333C21.5 21.975 21.2717 22.5245 20.8152 22.9818C20.3586 23.4392 19.8091 23.6674 19.1667 23.6667H2.83333ZM2.83333 21.3333H19.1667V9.66667H2.83333V21.3333Z" fill="#00639B"/>
</svg>
