<svg width="20" height="22" viewBox="0 0 20 22" fill="none" xmlns="http://www.w3.org/2000/svg">
<path d="M6.50002 2.83338C6.1906 2.83338 5.89386 2.9563 5.67506 3.17509C5.45627 3.39389 5.33335 3.69063 5.33335 4.00005C5.33335 4.30947 5.45627 4.60622 5.67506 4.82501C5.89386 5.0438 6.1906 5.16672 6.50002 5.16672C6.80944 5.16672 7.10619 5.0438 7.32498 4.82501C7.54377 4.60622 7.66669 4.30947 7.66669 4.00005C7.66669 3.69063 7.54377 3.39389 7.32498 3.17509C7.10619 2.9563 6.80944 2.83338 6.50002 2.83338ZM3.19835 2.83338C3.43939 2.15026 3.88638 1.55872 4.47772 1.14031C5.06906 0.721887 5.77562 0.497192 6.50002 0.497192C7.22442 0.497192 7.93098 0.721887 8.52232 1.14031C9.11366 1.55872 9.56065 2.15026 9.80169 2.83338H18.1667C18.4761 2.83338 18.7729 2.9563 18.9916 3.17509C19.2104 3.39389 19.3334 3.69063 19.3334 4.00005C19.3334 4.30947 19.2104 4.60622 18.9916 4.82501C18.7729 5.0438 18.4761 5.16672 18.1667 5.16672H9.80169C9.56065 5.84984 9.11366 6.44138 8.52232 6.8598C7.93098 7.27822 7.22442 7.50291 6.50002 7.50291C5.77562 7.50291 5.06906 7.27822 4.47772 6.8598C3.88638 6.44138 3.43939 5.84984 3.19835 5.16672H1.83335C1.52393 5.16672 1.22719 5.0438 1.0084 4.82501C0.789604 4.60622 0.666687 4.30947 0.666687 4.00005C0.666687 3.69063 0.789604 3.39389 1.0084 3.17509C1.22719 2.9563 1.52393 2.83338 1.83335 2.83338H3.19835ZM13.5 9.83338C13.1906 9.83338 12.8939 9.9563 12.6751 10.1751C12.4563 10.3939 12.3334 10.6906 12.3334 11.0001C12.3334 11.3095 12.4563 11.6062 12.6751 11.825C12.8939 12.0438 13.1906 12.1667 13.5 12.1667C13.8094 12.1667 14.1062 12.0438 14.325 11.825C14.5438 11.6062 14.6667 11.3095 14.6667 11.0001C14.6667 10.6906 14.5438 10.3939 14.325 10.1751C14.1062 9.9563 13.8094 9.83338 13.5 9.83338ZM10.1984 9.83338C10.4394 9.15026 10.8864 8.55872 11.4777 8.14031C12.0691 7.72189 12.7756 7.49719 13.5 7.49719C14.2244 7.49719 14.931 7.72189 15.5223 8.14031C16.1137 8.55872 16.5607 9.15026 16.8017 9.83338H18.1667C18.4761 9.83338 18.7729 9.9563 18.9916 10.1751C19.2104 10.3939 19.3334 10.6906 19.3334 11.0001C19.3334 11.3095 19.2104 11.6062 18.9916 11.825C18.7729 12.0438 18.4761 12.1667 18.1667 12.1667H16.8017C16.5607 12.8498 16.1137 13.4414 15.5223 13.8598C14.931 14.2782 14.2244 14.5029 13.5 14.5029C12.7756 14.5029 12.0691 14.2782 11.4777 13.8598C10.8864 13.4414 10.4394 12.8498 10.1984 12.1667H1.83335C1.52393 12.1667 1.22719 12.0438 1.0084 11.825C0.789604 11.6062 0.666687 11.3095 0.666687 11.0001C0.666687 10.6906 0.789604 10.3939 1.0084 10.1751C1.22719 9.9563 1.52393 9.83338 1.83335 9.83338H10.1984ZM6.50002 16.8334C6.1906 16.8334 5.89386 16.9563 5.67506 17.1751C5.45627 17.3939 5.33335 17.6906 5.33335 18.0001C5.33335 18.3095 5.45627 18.6062 5.67506 18.825C5.89386 19.0438 6.1906 19.1667 6.50002 19.1667C6.80944 19.1667 7.10619 19.0438 7.32498 18.825C7.54377 18.6062 7.66669 18.3095 7.66669 18.0001C7.66669 17.6906 7.54377 17.3939 7.32498 17.1751C7.10619 16.9563 6.80944 16.8334 6.50002 16.8334ZM3.19835 16.8334C3.43939 16.1503 3.88638 15.5587 4.47772 15.1403C5.06906 14.7219 5.77562 14.4972 6.50002 14.4972C7.22442 14.4972 7.93098 14.7219 8.52232 15.1403C9.11366 15.5587 9.56065 16.1503 9.80169 16.8334H18.1667C18.4761 16.8334 18.7729 16.9563 18.9916 17.1751C19.2104 17.3939 19.3334 17.6906 19.3334 18.0001C19.3334 18.3095 19.2104 18.6062 18.9916 18.825C18.7729 19.0438 18.4761 19.1667 18.1667 19.1667H9.80169C9.56065 19.8498 9.11366 20.4414 8.52232 20.8598C7.93098 21.2782 7.22442 21.5029 6.50002 21.5029C5.77562 21.5029 5.06906 21.2782 4.47772 20.8598C3.88638 20.4414 3.43939 19.8498 3.19835 19.1667H1.83335C1.52393 19.1667 1.22719 19.0438 1.0084 18.825C0.789604 18.6062 0.666687 18.3095 0.666687 18.0001C0.666687 17.6906 0.789604 17.3939 1.0084 17.1751C1.22719 16.9563 1.52393 16.8334 1.83335 16.8334H3.19835Z" fill="#00639B"/>
</svg>
