<svg width="19" height="23" viewBox="0 0 19 23" fill="none" xmlns="http://www.w3.org/2000/svg">
<path d="M0.508505 8.99147L8.67517 0.824799C8.89395 0.606083 9.19065 0.483215 9.5 0.483215C9.80936 0.483215 10.1061 0.606083 10.3248 0.824799L18.4915 8.99147C18.7103 9.21021 18.8333 9.5069 18.8333 9.8163V21C18.8333 21.3094 18.7104 21.6061 18.4916 21.8249C18.2728 22.0437 17.9761 22.1666 17.6667 22.1666H11.8333V14H7.16667V22.1666H1.33334C1.02392 22.1666 0.727173 22.0437 0.508381 21.8249C0.289588 21.6061 0.166672 21.3094 0.166672 21V9.8163C0.166738 9.5069 0.289698 9.21021 0.508505 8.99147Z" fill="#A2A2A2"/>
</svg>
