<svg width="24" height="22" viewBox="0 0 24 22" fill="none" xmlns="http://www.w3.org/2000/svg">
<path d="M22.29 2.20917C21.1926 1.14353 19.7245 0.545421 18.195 0.540833H5.87496C5.11475 0.530032 4.35995 0.670055 3.6542 0.952803C2.94846 1.23555 2.30577 1.65541 1.76331 2.18811C1.22085 2.72081 0.789381 3.35576 0.493861 4.05626C0.198342 4.75676 0.0446336 5.50889 0.041626 6.26917V15.7308C0.0439858 16.4847 0.195733 17.2306 0.488098 17.9255C0.780462 18.6203 1.20765 19.2504 1.74496 19.7792C2.83624 20.8554 4.30726 21.4589 5.83996 21.4592H18.16C19.6927 21.4589 21.1637 20.8554 22.255 19.7792C22.7954 19.2528 23.2247 18.6232 23.5173 17.9278C23.8099 17.2324 23.9598 16.4853 23.9583 15.7308V6.26917C23.9634 5.5156 23.8185 4.76854 23.5321 4.07151C23.2457 3.37448 22.8234 2.74141 22.29 2.20917ZM11.6033 16.5008C11.3712 16.5008 11.1487 16.4086 10.9846 16.2446C10.8205 16.0805 10.7283 15.8579 10.7283 15.6258C10.7285 15.2721 10.6585 14.9219 10.5223 14.5954C10.3861 14.269 10.1865 13.9728 9.93496 13.7242C9.41104 13.2396 8.72363 12.9704 8.00996 12.9704C7.29629 12.9704 6.60888 13.2396 6.08496 13.7242C5.8329 13.9725 5.6329 14.2685 5.49668 14.5951C5.36046 14.9216 5.29074 15.272 5.29163 15.6258C5.29163 15.8579 5.19944 16.0805 5.03534 16.2446C4.87125 16.4086 4.64869 16.5008 4.41663 16.5008C4.18456 16.5008 3.962 16.4086 3.79791 16.2446C3.63381 16.0805 3.54163 15.8579 3.54163 15.6258C3.5407 15.0405 3.65569 14.4608 3.87996 13.9202C4.10423 13.3795 4.43333 12.8886 4.84829 12.4758C5.24841 12.0601 5.72339 11.7237 6.24829 11.4842C5.77603 11.194 5.38633 10.7873 5.11664 10.3031C4.84695 9.81887 4.70633 9.27342 4.70829 8.71917C4.70829 7.85279 5.05246 7.0219 5.66508 6.40928C6.2777 5.79666 7.10859 5.4525 7.97496 5.4525C8.84133 5.4525 9.67222 5.79666 10.2848 6.40928C10.8975 7.0219 11.2416 7.85279 11.2416 8.71917C11.2485 9.26903 11.115 9.81155 10.8537 10.2954C10.5924 10.7792 10.2119 11.1884 9.74829 11.4842C10.2815 11.7058 10.7691 12.0267 11.1833 12.4292C12.0128 13.2687 12.4817 14.399 12.49 15.5792C12.4981 15.6993 12.4811 15.8199 12.4399 15.9331C12.3987 16.0463 12.3343 16.1496 12.2508 16.2364C12.1673 16.3232 12.0665 16.3916 11.955 16.4371C11.8435 16.4827 11.7237 16.5044 11.6033 16.5008ZM19.2216 15.4742H15.0333C14.8012 15.4742 14.5787 15.382 14.4146 15.2179C14.2505 15.0538 14.1583 14.8312 14.1583 14.5992C14.1583 14.3671 14.2505 14.1445 14.4146 13.9804C14.5787 13.8164 14.8012 13.7242 15.0333 13.7242H19.2216C19.4537 13.7242 19.6762 13.8164 19.8403 13.9804C20.0044 14.1445 20.0966 14.3671 20.0966 14.5992C20.0966 14.8312 20.0044 15.0538 19.8403 15.2179C19.6762 15.382 19.4537 15.4742 19.2216 15.4742ZM14.1583 10.9942C14.1583 10.7621 14.2505 10.5395 14.4146 10.3754C14.5787 10.2114 14.8012 10.1192 15.0333 10.1192H16.83C17.062 10.1192 17.2846 10.2114 17.4487 10.3754C17.6128 10.5395 17.705 10.7621 17.705 10.9942C17.705 11.2262 17.6128 11.4488 17.4487 11.6129C17.2846 11.777 17.062 11.8692 16.83 11.8692H15.0333C14.918 11.8707 14.8035 11.8492 14.6966 11.8058C14.5897 11.7623 14.4926 11.6979 14.4111 11.6164C14.3295 11.5348 14.2651 11.4377 14.2217 11.3309C14.1783 11.224 14.1567 11.1095 14.1583 10.9942ZM19.2216 8.27583H15.0333C14.8012 8.27583 14.5787 8.18365 14.4146 8.01955C14.2505 7.85546 14.1583 7.6329 14.1583 7.40083C14.1583 7.16877 14.2505 6.94621 14.4146 6.78211C14.5787 6.61802 14.8012 6.52583 15.0333 6.52583H19.2216C19.4537 6.52583 19.6762 6.61802 19.8403 6.78211C20.0044 6.94621 20.0966 7.16877 20.0966 7.40083C20.0966 7.6329 20.0044 7.85546 19.8403 8.01955C19.6762 8.18365 19.4537 8.27583 19.2216 8.27583Z" fill="#00639B"/>
</svg>
