<svg width="18" height="24" viewBox="0 0 18 24" fill="none" xmlns="http://www.w3.org/2000/svg">
<path d="M9 23.1667C10.2833 23.1667 11.3333 22.1167 11.3333 20.8334H6.66667C6.66667 21.4522 6.9125 22.0457 7.35008 22.4833C7.78767 22.9209 8.38116 23.1667 9 23.1667ZM16 16.1667V10.3334C16 6.75169 14.0867 3.75335 10.75 2.96002V2.16669C10.75 1.19835 9.96833 0.416687 9 0.416687C8.03167 0.416687 7.25 1.19835 7.25 2.16669V2.96002C3.90167 3.75335 2 6.74002 2 10.3334V16.1667L0.494999 17.6717C-0.240001 18.4067 0.273332 19.6667 1.31167 19.6667H16.6767C17.715 19.6667 18.24 18.4067 17.505 17.6717L16 16.1667Z" fill="#A2A2A2"/>
</svg>
