<svg width="24" height="21" viewBox="0 0 24 21" fill="none" xmlns="http://www.w3.org/2000/svg">
<path d="M10.8334 8.66667H13.1667V15.6667H10.8334V8.66667ZM23.6667 11H20.1667V20.3333H3.83337V11H0.333374L12 0.5L23.6667 11ZM15.5 8.66667C15.5 8.04783 15.2542 7.45434 14.8166 7.01675C14.379 6.57917 13.7855 6.33333 13.1667 6.33333H10.8334C10.2145 6.33333 9.62104 6.57917 9.18346 7.01675C8.74587 7.45434 8.50004 8.04783 8.50004 8.66667V15.6667C8.50004 16.2855 8.74587 16.879 9.18346 17.3166C9.62104 17.7542 10.2145 18 10.8334 18H13.1667C13.7855 18 14.379 17.7542 14.8166 17.3166C15.2542 16.879 15.5 16.2855 15.5 15.6667V8.66667Z" fill="#00639B"/>
</svg>
