<svg width="19" height="20" viewBox="0 0 19 20" fill="none" xmlns="http://www.w3.org/2000/svg">
<path d="M14.6651 6.36994L15.0895 5.94461C15.4274 5.60655 15.8858 5.41659 16.3638 5.4165C16.8418 5.41642 17.3002 5.60622 17.6383 5.94415C17.9763 6.28208 18.1663 6.74046 18.1664 7.21845C18.1665 7.69644 17.9767 8.15489 17.6387 8.49294L17.2143 8.91827M14.6651 6.36994C14.6651 6.36994 14.7182 7.27194 15.5148 8.06852C16.3114 8.8651 17.2143 8.91827 17.2143 8.91827M14.6651 6.36994L10.7601 10.2749C10.4942 10.5389 10.3622 10.6719 10.2486 10.8176C10.1147 10.9899 10.0001 11.1751 9.90572 11.3731C9.82597 11.5399 9.76731 11.7169 9.64906 12.0716L9.27047 13.2083L9.14764 13.5759M17.2143 8.91827L13.3093 12.8233C13.0435 13.0891 12.9115 13.2211 12.7657 13.3348C12.5934 13.4686 12.4082 13.5832 12.2102 13.6776C12.0434 13.7574 11.8665 13.816 11.5117 13.9343L10.3751 14.3129L10.0075 14.4357M9.14764 13.5759L9.02572 13.9444C8.99733 14.0299 8.99328 14.1216 9.01404 14.2093C9.0348 14.297 9.07955 14.3772 9.14327 14.441C9.207 14.5047 9.2872 14.5494 9.3749 14.5702C9.46261 14.591 9.55436 14.5869 9.63989 14.5585L10.0075 14.4357M9.14764 13.5759L10.0075 14.4357" stroke="white" stroke-width="1.5"/>
<path d="M5.33333 10.9166H7.625M5.33333 7.24992H11.2917M5.33333 14.5833H6.70833M0.75 11.8333V8.16659C0.75 4.70984 0.75 2.981 1.82433 1.90759C2.89775 0.833252 4.62658 0.833252 8.08333 0.833252H9.91667C13.3734 0.833252 15.1022 0.833252 16.1757 1.90759M17.25 11.8333C17.25 15.29 17.25 17.0188 16.1757 18.0923M16.1757 18.0923C15.1022 19.1666 13.3734 19.1666 9.91667 19.1666H8.08333C4.62658 19.1666 2.89775 19.1666 1.82433 18.0923M16.1757 18.0923C17.041 17.2278 17.2087 15.9399 17.2417 13.6666" stroke="white" stroke-width="1.5" stroke-linecap="round"/>
</svg>
